<svg width="13" height="11" viewBox="0 0 13 11" fill="none" xmlns="http://www.w3.org/2000/svg">
<path d="M7.63184 9.82886C7.46771 9.66473 7.38893 9.46642 7.3955 9.2339C7.40261 9.00139 7.48823 8.80307 7.65235 8.63895L9.97063 6.32068H0.820628C0.588117 6.32068 0.393081 6.2419 0.23552 6.08434C0.0785069 5.92732 0 5.73256 0 5.50005C0 5.26754 0.0785069 5.0725 0.23552 4.91494C0.393081 4.75793 0.588117 4.67942 0.820628 4.67942H9.97063L7.63184 2.34063C7.46771 2.17651 7.38565 1.98147 7.38565 1.75552C7.38565 1.53012 7.46771 1.33536 7.63184 1.17124C7.79596 1.00711 7.991 0.925049 8.21695 0.925049C8.44234 0.925049 8.63711 1.00711 8.80123 1.17124L12.5556 4.92561C12.6377 5.00767 12.6959 5.09657 12.7304 5.19231C12.7643 5.28805 12.7813 5.39063 12.7813 5.50005C12.7813 5.60947 12.7643 5.71204 12.7304 5.80778C12.6959 5.90352 12.6377 5.99242 12.5556 6.07449L8.78072 9.84937C8.63027 9.99982 8.44234 10.075 8.21695 10.075C7.991 10.075 7.79596 9.99298 7.63184 9.82886Z" fill="white"/>
</svg>
