<svg width="15" height="15" viewBox="0 0 15 15" fill="none" xmlns="http://www.w3.org/2000/svg">
<path d="M10.7686 7.52663C10.4824 7.39044 10.188 7.27223 9.88701 7.1727C10.8562 6.4452 11.4844 5.28677 11.4844 3.98438C11.4844 1.7874 9.69699 0 7.49999 0C5.30299 0 3.51561 1.7874 3.51561 3.98438C3.51561 5.2882 4.14514 6.44777 5.11619 7.17513C4.2265 7.46804 3.39169 7.92381 2.66102 8.52481C1.32122 9.62687 0.389666 11.164 0.0380161 12.8532C-0.0721988 13.3825 0.0598422 13.9261 0.400213 14.3447C0.738914 14.7611 1.24115 15 1.7781 15H8.99413C9.31774 15 9.58007 14.7377 9.58007 14.4141C9.58007 14.0904 9.31774 13.8281 8.99413 13.8281H1.7781C1.52797 13.8281 1.37706 13.6885 1.30938 13.6053C1.19252 13.4616 1.14728 13.2745 1.18528 13.092C1.79334 10.1713 4.36959 8.03771 7.34466 7.96576C7.44868 7.96978 7.55282 7.96976 7.65684 7.9657C8.56856 7.98709 9.44542 8.19516 10.2656 8.58504C10.5578 8.72391 10.9074 8.59966 11.0463 8.30736C11.1852 8.0151 11.0609 7.66556 10.7686 7.52663ZM7.6429 6.79327C7.548 6.79152 7.45309 6.79154 7.35819 6.79333C5.87299 6.71924 4.68749 5.48766 4.68749 3.98438C4.68749 2.43354 5.94916 1.17188 7.49999 1.17188C9.05082 1.17188 10.3125 2.43354 10.3125 3.98438C10.3125 5.48728 9.12758 6.71862 7.6429 6.79327Z" fill="black"/>
<path d="M14.4141 11.6309H12.8027V10.0195C12.8027 9.69592 12.5404 9.43359 12.2168 9.43359C11.8932 9.43359 11.6309 9.69592 11.6309 10.0195V11.6309H10.0195C9.69592 11.6309 9.43359 11.8932 9.43359 12.2168C9.43359 12.5404 9.69592 12.8027 10.0195 12.8027H11.6309V14.4141C11.6309 14.7377 11.8932 15 12.2168 15C12.5404 15 12.8027 14.7377 12.8027 14.4141V12.8027H14.4141C14.7377 12.8027 15 12.5404 15 12.2168C15 11.8932 14.7377 11.6309 14.4141 11.6309Z" fill="#646464"/>
</svg>
