<svg width="22" height="22" viewBox="0 0 22 22" fill="none" xmlns="http://www.w3.org/2000/svg">
<path d="M0.228489 21.7696C0.301464 21.8426 0.388123 21.9006 0.483511 21.9401C0.578899 21.9796 0.681146 22 0.784405 22C0.887664 22 0.989911 21.9796 1.0853 21.9401C1.18069 21.9006 1.26735 21.8426 1.34032 21.7696L10.9971 12.1136L20.6579 21.7696C20.8053 21.917 21.0053 21.9998 21.2138 21.9998C21.4223 21.9998 21.6223 21.917 21.7697 21.7696C21.9172 21.6221 22 21.4222 22 21.2137C22 21.0052 21.9172 20.8053 21.7697 20.6578L12.109 11.0019L21.7658 1.34198C21.9132 1.19455 21.9961 0.994604 21.9961 0.786113C21.9961 0.577623 21.9132 0.377672 21.7658 0.230247C21.6184 0.0828224 21.4184 0 21.2099 0C21.0014 0 20.8014 0.0828224 20.654 0.230247L10.9971 9.89014L1.33639 0.234176C1.18608 0.105461 0.992724 0.0382025 0.794971 0.0458402C0.597217 0.0534779 0.409628 0.135449 0.269691 0.275374C0.129754 0.415299 0.0477754 0.602871 0.0401371 0.800607C0.0324987 0.998343 0.0997634 1.19168 0.228489 1.34198L9.88532 11.0019L0.228489 20.6618C0.0821433 20.809 0 21.0081 0 21.2157C0 21.4232 0.0821433 21.6224 0.228489 21.7696Z" fill="white"/>
</svg>
