<svg width="18" height="16" viewBox="0 0 18 16" fill="none" xmlns="http://www.w3.org/2000/svg">
<path fill-rule="evenodd" clip-rule="evenodd" d="M4.394 1.86503C4.37081 0.806564 3.60317 0 2.35688 0C1.10977 0 0.294922 0.806564 0.294922 1.86503C0.294922 2.90133 1.08575 3.73087 2.30885 3.73087H2.33204C3.60317 3.73087 4.394 2.90133 4.394 1.86503ZM4.15385 5.20451H0.510227V16H4.15385V5.20451ZM13.0998 4.95097C15.4971 4.95097 17.2949 6.49354 17.2949 9.81005V16H13.6513V10.2244C13.6513 8.77374 13.1238 7.78338 11.8046 7.78338C10.7985 7.78338 10.1981 8.45128 9.9348 9.09621C9.83874 9.32677 9.81472 9.64841 9.81472 9.97087V16H6.1711C6.1711 16 6.21913 6.21785 6.1711 5.20451H9.81472V6.73395C10.2992 5.99877 11.1645 4.95097 13.0998 4.95097Z" fill="#535768"/>
</svg>
