<svg width="19" height="19" viewBox="0 0 19 19" fill="none" xmlns="http://www.w3.org/2000/svg">
<path d="M9.32559 1.67018C11.8012 1.67018 12.0911 1.68088 13.0695 1.72536C13.9754 1.76571 14.4638 1.91642 14.7907 2.0449C15.2256 2.21455 15.5344 2.41303 15.8581 2.73669C16.1817 3.06035 16.3835 3.36918 16.5499 3.8032C16.6742 4.13015 16.829 4.61935 16.8694 5.52444C16.913 6.50283 16.9246 6.79272 16.9246 9.26834C16.9246 11.744 16.913 12.0347 16.8694 13.0131C16.8282 13.9182 16.6783 14.4073 16.549 14.7343C16.4009 15.137 16.1645 15.5014 15.8572 15.8008C15.559 16.1092 15.1946 16.3457 14.7916 16.4926C14.4638 16.6178 13.9746 16.7726 13.0703 16.8121C12.0911 16.8566 11.8012 16.8673 9.32559 16.8673C6.84997 16.8673 6.56008 16.8566 5.58169 16.8121C4.67577 16.7718 4.1874 16.6211 3.86045 16.4926C3.45749 16.3446 3.09279 16.1082 2.79312 15.8008C2.48464 15.5024 2.24808 15.1377 2.10133 14.7343C1.97697 14.4073 1.82214 13.9182 1.78179 13.0131C1.73814 12.0347 1.72661 11.7448 1.72661 9.26916C1.72661 6.79354 1.73814 6.50283 1.78179 5.52444C1.82296 4.61935 1.97285 4.13015 2.10215 3.8032C2.27098 3.36918 2.46946 3.06035 2.79394 2.73669C3.09216 2.42832 3.45657 2.19176 3.85963 2.0449C4.1874 1.91972 4.6766 1.76489 5.58087 1.72536C6.56008 1.67759 6.85409 1.67018 9.32559 1.67018ZM9.32559 0C6.80962 0 6.49337 0.0107063 5.50427 0.0551785C4.51847 0.0996507 3.84563 0.257774 3.25596 0.4859C2.63737 0.718454 2.07736 1.08393 1.61543 1.55653C1.14489 2.01983 0.779722 2.57909 0.5448 3.19623C0.319145 3.78508 0.161021 4.45793 0.116549 5.44702C0.0712532 6.43282 0.0605469 6.74907 0.0605469 9.26504C0.0605469 11.781 0.0712531 12.0973 0.115725 13.0864C0.160198 14.0722 0.318321 14.745 0.546447 15.3371C0.779001 15.9557 1.14447 16.5157 1.61707 16.9777C2.08036 17.4482 2.63963 17.8134 3.25678 18.0483C3.84563 18.2764 4.51847 18.4346 5.50757 18.479C6.49749 18.5227 6.80962 18.5342 9.32889 18.5342C11.849 18.5342 12.1619 18.5227 13.1502 18.479C14.1368 18.4346 14.8097 18.2764 15.4018 18.0483C16.0204 17.8158 16.5804 17.4503 17.0423 16.9777C17.5129 16.5144 17.878 15.9551 18.113 15.338C18.3403 14.7491 18.4984 14.0763 18.5429 13.0864C18.5865 12.0973 18.598 11.7851 18.598 9.26504C18.598 6.74495 18.5865 6.43282 18.5429 5.44373C18.4984 4.45793 18.3403 3.78508 18.1121 3.19294C17.8796 2.57435 17.5141 2.01434 17.0415 1.55241C16.5782 1.08189 16.0189 0.716728 15.4018 0.481782C14.813 0.253656 14.1401 0.0955329 13.151 0.0518842C12.1578 0.0107063 11.8416 0 9.32559 0Z" fill="#535768"/>
<path d="M9.32576 4.50911C8.06328 4.50933 6.8526 5.01105 5.96005 5.90391C5.0675 6.79677 4.56619 8.00763 4.56641 9.27011C4.56662 10.5326 5.06835 11.7433 5.96121 12.6358C6.85407 13.5284 8.06493 14.0297 9.3274 14.0295C9.95252 14.0293 10.5715 13.9061 11.149 13.6668C11.7265 13.4275 12.2512 13.0768 12.6931 12.6347C13.1351 12.1926 13.4856 11.6677 13.7247 11.0902C13.9638 10.5126 14.0869 9.89357 14.0868 9.26846C14.0866 8.64334 13.9634 8.02437 13.7241 7.44688C13.4848 6.86939 13.134 6.3447 12.6919 5.90275C12.2498 5.4608 11.725 5.11026 11.1475 4.87114C10.5699 4.63202 9.95087 4.509 9.32576 4.50911ZM9.32576 12.3543C8.50646 12.3543 7.72071 12.0289 7.14138 11.4495C6.56205 10.8702 6.23658 10.0845 6.23658 9.26517C6.23658 8.44587 6.56205 7.66012 7.14138 7.08079C7.72071 6.50146 8.50646 6.17599 9.32576 6.17599C10.1451 6.17599 10.9308 6.50146 11.5101 7.08079C12.0895 7.66012 12.4149 8.44587 12.4149 9.26517C12.4149 10.0845 12.0895 10.8702 11.5101 11.4495C10.9308 12.0289 10.1451 12.3543 9.32576 12.3543ZM14.2729 5.42903C14.4213 5.43307 14.569 5.40733 14.7072 5.35334C14.8455 5.29934 14.9716 5.21819 15.0779 5.11466C15.1843 5.01113 15.2689 4.88734 15.3266 4.75059C15.3844 4.61383 15.4141 4.4669 15.4141 4.31846C15.4141 4.17001 15.3844 4.02308 15.3266 3.88632C15.2689 3.74957 15.1843 3.62578 15.0779 3.52225C14.9716 3.41873 14.8455 3.33757 14.7072 3.28357C14.569 3.22958 14.4213 3.20384 14.2729 3.20789C13.9836 3.21576 13.7088 3.33623 13.5069 3.54364C13.3051 3.75105 13.1921 4.02904 13.1921 4.31846C13.1921 4.60787 13.3051 4.88586 13.5069 5.09327C13.7088 5.30068 13.9836 5.42115 14.2729 5.42903Z" fill="#535768"/>
</svg>
