<svg width="19" height="15" viewBox="0 0 19 15" fill="none" xmlns="http://www.w3.org/2000/svg">
<path d="M8.80053 3.9902L8.83977 4.63883L8.18904 4.55931C5.82235 4.25529 3.75405 3.22228 1.99804 1.48763L1.13966 0.626925L0.918931 1.2623C0.450498 2.67886 0.749707 4.17576 1.72499 5.18143C2.24575 5.73811 2.12884 5.81764 1.23122 5.48628C0.918931 5.38025 0.645883 5.30072 0.619723 5.34048C0.528979 5.43326 0.84045 6.63857 1.08816 7.1149C1.42579 7.77762 2.11576 8.42542 2.87032 8.80979L3.50716 9.11381L2.7526 9.12707C2.02502 9.12707 1.99804 9.14032 2.07652 9.41866C2.33649 10.2802 3.3641 11.1931 4.50861 11.5899L5.31467 11.8682L4.61243 12.2924C3.54938 12.9078 2.35143 13.2444 1.1274 13.2715C0.54206 13.2848 0.0605469 13.3378 0.0605469 13.3776C0.0605469 13.5101 1.64651 14.2515 2.5703 14.5431C5.34165 15.4038 8.63131 15.0327 11.1026 13.5631C12.8586 12.5169 14.6138 10.4384 15.4338 8.42542C15.8753 7.35348 16.3183 5.3935 16.3183 4.45327C16.3183 3.8444 16.3568 3.76571 17.0852 3.03672C17.5144 2.61341 17.9174 2.15034 17.9959 2.0178C18.1259 1.76597 18.1128 1.76597 17.4498 1.99046C16.3437 2.38809 16.1875 2.33507 16.7345 1.73946C17.1375 1.31532 17.6182 0.547399 17.6182 0.322904C17.6182 0.282313 17.4236 0.348585 17.2021 0.467873C16.9683 0.600416 16.4483 0.799231 16.0576 0.918519L15.3553 1.14301L14.7177 0.70645C14.3669 0.467873 13.8724 0.203616 13.6124 0.12409C12.9494 -0.06147 11.9349 -0.0349616 11.3364 0.177107C9.71124 0.772722 8.68363 2.30856 8.80053 3.9902Z" fill="#535768"/>
</svg>
