<svg width="21" height="15" viewBox="0 0 21 15" fill="none" xmlns="http://www.w3.org/2000/svg">
<path d="M19.6535 2.37694C19.5403 1.95977 19.3199 1.57949 19.0142 1.27392C18.7085 0.968339 18.3281 0.748105 17.9109 0.635109C16.3642 0.2118 10.1776 0.2118 10.1776 0.2118C10.1776 0.2118 3.99106 0.2118 2.44441 0.618638C2.02753 0.737654 1.64827 0.961902 1.34308 1.26983C1.03789 1.57775 0.817045 1.95901 0.70176 2.37694C0.294922 3.92358 0.294922 7.13135 0.294922 7.13135C0.294922 7.13135 0.294922 10.3548 0.70176 11.8849C0.814828 12.3023 1.03519 12.6827 1.34092 12.9884C1.64665 13.2942 2.02709 13.5145 2.44441 13.6276C4.0067 14.0509 10.1776 14.0509 10.1776 14.0509C10.1776 14.0509 16.3642 14.0509 17.9109 13.6441C18.3281 13.5311 18.7085 13.3108 19.0142 13.0052C19.3199 12.6997 19.5403 12.3194 19.6535 11.9022C20.0604 10.3548 20.0604 7.14617 20.0604 7.14617C20.0604 7.14617 20.0768 3.92358 19.6535 2.37694ZM8.20768 10.0937V4.16818L13.3525 7.13217L8.20768 10.0937Z" fill="#535768"/>
</svg>
