<svg width="16" height="18" viewBox="0 0 16 18" fill="none" xmlns="http://www.w3.org/2000/svg">
<path d="M15.5977 4.32255C14.527 4.28858 13.5552 3.75962 12.823 3.05236C12.4228 2.65944 12.1057 2.18546 11.8917 1.66018C11.6777 1.1349 11.5714 0.569675 11.5794 0H8.59634V11.8469C8.59634 13.7819 7.47132 14.9222 6.08934 14.9222C5.7228 14.9263 5.35985 14.8475 5.02601 14.6914C4.69217 14.5354 4.39557 14.3058 4.15707 14.0188C3.91857 13.7318 3.74397 13.3945 3.64556 13.0305C3.54714 12.6664 3.5273 12.2846 3.58744 11.9118C3.64757 11.5391 3.78621 11.1844 3.99361 10.8728C4.20101 10.5612 4.47213 10.3003 4.78788 10.1083C5.10363 9.91638 5.45635 9.7981 5.82122 9.76182C6.18608 9.72553 6.55423 9.77212 6.89975 9.8983V6.77038C6.63362 6.71009 6.36181 6.68047 6.08934 6.68207C5.00354 6.68157 3.94198 7.01306 3.03894 7.6346C2.1359 8.25615 1.43195 9.13983 1.01613 10.1739C0.600311 11.2079 0.491301 12.3459 0.702891 13.4438C0.914481 14.5417 1.43716 15.5503 2.20483 16.3419C2.97249 17.1336 3.95065 17.6727 5.01557 17.8912C6.0805 18.1096 7.18435 17.9976 8.1875 17.5692C9.19065 17.1409 10.048 16.4154 10.6512 15.4846C11.2544 14.5539 11.5762 13.4596 11.5761 12.3402V5.96377C12.7324 6.78821 14.1136 7.17792 15.5878 7.20509L15.5977 4.32255Z" fill="#535768"/>
</svg>
