<svg width="18" height="18" viewBox="0 0 18 18" fill="none" xmlns="http://www.w3.org/2000/svg">
<path d="M6.6648 8.64738C6.16902 8.64738 5.76465 9.05175 5.76465 9.54753C5.76465 10.0433 6.16902 10.4477 6.6648 10.4477C7.16058 10.4477 7.56495 10.0433 7.56495 9.54753C7.56495 9.05175 7.16058 8.64738 6.6648 8.64738ZM8.65699 12.5815C9.00124 12.5815 10.1748 12.5412 10.7917 11.9243C10.8822 11.8337 10.8822 11.6921 10.8114 11.5908C10.7669 11.5471 10.707 11.5226 10.6446 11.5226C10.5823 11.5226 10.5224 11.5471 10.4779 11.5908C10.0834 11.9746 9.26395 12.1162 8.6677 12.1162C8.07061 12.1162 7.24129 11.9746 6.85751 11.5908C6.81297 11.5468 6.75291 11.5222 6.69033 11.5222C6.62775 11.5222 6.56769 11.5468 6.52315 11.5908C6.47944 11.6353 6.45495 11.6952 6.45495 11.7575C6.45495 11.8199 6.47944 11.8798 6.52315 11.9243C7.13011 12.5313 8.31357 12.5815 8.65699 12.5815ZM9.72926 9.54753C9.72926 10.0433 10.1345 10.4477 10.6294 10.4477C11.1252 10.4477 11.5296 10.0433 11.5296 9.54753C11.5296 9.05175 11.126 8.64738 10.6294 8.64738C10.1345 8.64738 9.72926 9.05175 9.72926 9.54753Z" fill="#535768"/>
<path fill-rule="evenodd" clip-rule="evenodd" d="M17.2947 8.64737C17.2947 13.4232 13.4232 17.2947 8.64737 17.2947C3.87155 17.2947 0 13.4232 0 8.64737C0 3.87155 3.87155 0 8.64737 0C13.4232 0 17.2947 3.87155 17.2947 8.64737ZM13.1481 7.38321C13.8465 7.38321 14.4123 7.94982 14.4123 8.64737C14.4104 8.88957 14.3413 9.12649 14.2128 9.33179C14.0842 9.53708 13.9013 9.7027 13.6843 9.81024C13.7049 9.93213 13.7147 10.0532 13.7147 10.185C13.7147 12.1261 11.459 13.6941 8.66796 13.6941C5.8761 13.6941 3.62119 12.1261 3.62119 10.185C3.62119 10.0532 3.63107 9.92142 3.65166 9.80036C3.38886 9.68125 3.17468 9.47589 3.04464 9.21833C2.91459 8.96077 2.87651 8.66649 2.93669 8.38431C2.99688 8.10213 3.15172 7.849 3.37553 7.66691C3.59935 7.48483 3.87869 7.38473 4.16721 7.38321C4.50075 7.38321 4.81453 7.52486 5.03689 7.73734C5.90657 7.09991 7.11061 6.70542 8.45466 6.66507L9.09292 3.65084C9.1081 3.59299 9.14381 3.54264 9.19339 3.50919C9.24563 3.47891 9.307 3.46838 9.36634 3.47954L11.459 3.92426C11.6007 3.62037 11.9037 3.4186 12.2579 3.4186C12.7536 3.4186 13.158 3.82296 13.158 4.31875C13.158 4.81453 12.7545 5.2189 12.2579 5.2189C11.7728 5.2189 11.3783 4.83429 11.3577 4.3591L9.48741 3.96462L8.91091 6.66507C10.2253 6.7153 11.4187 7.1205 12.2784 7.73734C12.5008 7.51498 12.8047 7.38321 13.1481 7.38321Z" fill="#535768"/>
</svg>
