<svg width="21" height="21" viewBox="0 0 21 21" fill="none" xmlns="http://www.w3.org/2000/svg">
<path d="M10.5 6.07104V8.71991" stroke="#A6A8B5" stroke-width="1.5" stroke-miterlimit="10" stroke-linecap="round"/>
<path d="M10.5172 2.53906C7.58991 2.53906 5.21945 4.90952 5.21945 7.83679V9.50724C5.21945 10.0482 4.99673 10.8595 4.71832 11.3209L3.70809 13.0072C3.08764 14.0493 3.51718 15.2107 4.66264 15.5925C8.46491 16.8572 12.5774 16.8572 16.3797 15.5925C17.4535 15.2345 17.9149 13.9777 17.3342 13.0072L16.324 11.3209C16.0456 10.8595 15.8229 10.0402 15.8229 9.50724V7.83679C15.8149 4.92543 13.4285 2.53906 10.5172 2.53906Z" stroke="#A6A8B5" stroke-width="1.5" stroke-miterlimit="10" stroke-linecap="round"/>
<path d="M13.1493 15.9187C13.1493 17.3744 11.9561 18.5676 10.5004 18.5676C9.77656 18.5676 9.10838 18.2653 8.63111 17.788C8.15383 17.3107 7.85156 16.6426 7.85156 15.9187" stroke="#A6A8B5" stroke-width="1.5" stroke-miterlimit="10"/>
</svg>
