<svg width="21" height="21" viewBox="0 0 21 21" fill="none" xmlns="http://www.w3.org/2000/svg">
<g clip-path="url(#clip0_140_1659)">
<path d="M20.816 6.10672L15.1285 0.200544C15.0378 0.106541 14.921 0.0417547 14.7932 0.0144727C14.6654 -0.0128093 14.5324 -0.00134699 14.4111 0.0473935C14.2897 0.096393 14.1857 0.180539 14.1124 0.289041C14.0391 0.397544 13.9999 0.52546 13.9998 0.656386V3.50021H13.7811C9.0772 3.50021 5.25 7.32742 5.25 12.0314V13.3438C5.25 13.6483 5.46435 13.9021 5.76093 13.9713C5.80916 13.9834 5.85723 13.9887 5.9053 13.9887C6.15299 13.9887 6.3901 13.8434 6.50465 13.6151C7.73494 11.1537 10.2085 9.62509 12.9604 9.62509H13.9998V12.4687C13.9998 12.5996 14.039 12.7275 14.1123 12.8359C14.1856 12.9443 14.2896 13.0282 14.4111 13.0769C14.657 13.1775 14.943 13.1163 15.1285 12.9238L20.816 7.01759C21.061 6.76301 21.061 6.36229 20.816 6.10677V6.10672Z" fill="#8C8C8C"/>
<path d="M18.3748 20.6603H2.62497C1.17775 20.6603 0 19.4827 0 18.0354V5.78561C0 4.33839 1.17775 3.16064 2.62497 3.16064H5.24994C5.73379 3.16064 6.12487 3.55172 6.12487 4.03558C6.12487 4.51944 5.73379 4.91051 5.24994 4.91051H2.62497C2.14193 4.91051 1.74987 5.30258 1.74987 5.78561V18.0354C1.74987 18.5184 2.14193 18.9105 2.62497 18.9105H18.3748C18.8577 18.9105 19.2497 18.5184 19.2497 18.0354V11.0356C19.2497 10.5517 19.6408 10.1605 20.1247 10.1605C20.6086 10.1605 20.9998 10.5517 20.9998 11.0356V18.0354C20.9998 19.4827 19.822 20.6603 18.3748 20.6603Z" fill="#8C8C8C"/>
</g>
<defs>
<clipPath id="clip0_140_1659">
<rect width="21" height="21" fill="white"/>
</clipPath>
</defs>
</svg>
