<svg width="22" height="22" viewBox="0 0 22 22" fill="none" xmlns="http://www.w3.org/2000/svg">
<path d="M20.1673 7.15926V14.8409C20.1673 17.7834 17.784 20.1668 14.8415 20.1668H7.15982C4.21732 20.1668 1.83398 17.7834 1.83398 14.8409V7.15926C1.83398 4.87676 2.76898 3.21759 4.42815 2.41092C5.03315 2.11759 5.72982 2.57592 5.72982 3.24509V11.3851C5.72982 12.4759 6.15148 13.3468 6.91232 13.7868C7.68232 14.2176 8.65398 14.1259 9.64398 13.5301L10.8357 12.8151C10.909 12.7784 11.0923 12.7784 11.1473 12.8059L12.3573 13.5301C13.0173 13.9243 13.5857 14.0526 14.044 14.0526C14.5206 14.0526 14.8873 13.9059 15.1073 13.7776C15.8498 13.3468 16.2715 12.4759 16.2715 11.3851V3.24509C16.2715 2.57592 16.9773 2.11759 17.5732 2.41092C19.2323 3.21759 20.1673 4.87676 20.1673 7.15926Z" fill="#8C8C8C"/>
<path d="M13.9785 1.83325C14.4827 1.83325 14.8952 2.24575 14.8952 2.74992V11.3849C14.8952 11.9716 14.721 12.4116 14.4185 12.5858C14.1068 12.7691 13.6118 12.6774 13.0618 12.3474L11.8518 11.6233C11.3843 11.3391 10.6143 11.3391 10.1468 11.6233L8.93685 12.3474C8.38685 12.6774 7.89185 12.7599 7.58018 12.5858C7.27768 12.4116 7.10352 11.9716 7.10352 11.3849V2.74992C7.10352 2.24575 7.51602 1.83325 8.02018 1.83325H13.9785Z" fill="#8C8C8C"/>
</svg>
