<svg width="19" height="19" viewBox="0 0 19 19" fill="none" xmlns="http://www.w3.org/2000/svg">
<path d="M9.46107 14.2502C9.73815 14.2502 9.97248 14.1544 10.1641 13.9628C10.3551 13.7717 10.4507 13.5377 10.4507 13.2606C10.4507 12.9835 10.3551 12.7494 10.1641 12.5584C9.97248 12.3668 9.73815 12.271 9.46107 12.271C9.18398 12.271 8.94965 12.3668 8.75807 12.5584C8.56701 12.7494 8.47148 12.9835 8.47148 13.2606C8.47148 13.5377 8.56701 13.7717 8.75807 13.9628C8.94965 14.1544 9.18398 14.2502 9.46107 14.2502ZM8.74857 11.2022H10.2132C10.2132 10.7668 10.2628 10.4238 10.362 10.1731C10.4607 9.92239 10.7409 9.57933 11.2027 9.14391C11.5458 8.80086 11.8163 8.47416 12.0142 8.16383C12.2121 7.85402 12.3111 7.48141 12.3111 7.046C12.3111 6.30711 12.0406 5.73975 11.4996 5.34391C10.9586 4.94808 10.3187 4.75016 9.57982 4.75016C8.82773 4.75016 8.21762 4.94808 7.74948 5.34391C7.28082 5.73975 6.95412 6.21475 6.7694 6.76891L8.07565 7.2835C8.14162 7.046 8.29019 6.7887 8.52136 6.51162C8.752 6.23454 9.10482 6.096 9.57982 6.096C10.002 6.096 10.3187 6.21132 10.5298 6.44195C10.7409 6.67312 10.8465 6.92725 10.8465 7.20433C10.8465 7.46822 10.7673 7.71548 10.609 7.94612C10.4507 8.17729 10.2527 8.39183 10.0152 8.58975C9.43468 9.10433 9.07843 9.49357 8.94648 9.75745C8.81454 10.0213 8.74857 10.5029 8.74857 11.2022ZM9.50065 17.4168C8.40551 17.4168 7.37635 17.2089 6.41315 16.793C5.44996 16.3776 4.61211 15.8137 3.89961 15.1012C3.18711 14.3887 2.62318 13.5509 2.20782 12.5877C1.79193 11.6245 1.58398 10.5953 1.58398 9.50016C1.58398 8.40502 1.79193 7.37586 2.20782 6.41266C2.62318 5.44947 3.18711 4.61162 3.89961 3.89912C4.61211 3.18662 5.44996 2.62243 6.41315 2.20654C7.37635 1.79118 8.40551 1.5835 9.50065 1.5835C10.5958 1.5835 11.625 1.79118 12.5882 2.20654C13.5513 2.62243 14.3892 3.18662 15.1017 3.89912C15.8142 4.61162 16.3781 5.44947 16.7935 6.41266C17.2094 7.37586 17.4173 8.40502 17.4173 9.50016C17.4173 10.5953 17.2094 11.6245 16.7935 12.5877C16.3781 13.5509 15.8142 14.3887 15.1017 15.1012C14.3892 15.8137 13.5513 16.3776 12.5882 16.793C11.625 17.2089 10.5958 17.4168 9.50065 17.4168ZM9.50065 15.8335C11.2687 15.8335 12.7663 15.22 13.9934 13.9929C15.2204 12.7658 15.834 11.2682 15.834 9.50016C15.834 7.73211 15.2204 6.23454 13.9934 5.00745C12.7663 3.78037 11.2687 3.16683 9.50065 3.16683C7.73259 3.16683 6.23503 3.78037 5.00794 5.00745C3.78086 6.23454 3.16732 7.73211 3.16732 9.50016C3.16732 11.2682 3.78086 12.7658 5.00794 13.9929C6.23503 15.22 7.73259 15.8335 9.50065 15.8335Z" fill="#A6A8B5"/>
</svg>
